{"title":"Milk Junkies (Russian Anal) (2012)","uid":7784397,"size":409010990,"categoryP":"porn","categoryS":"movies","magnet":"?xt=urn:btih:f06d3c743e60e4a0fe17159c69b2dbaa961ffe70&amp;dn=Milk+Junkies+%28Russian+Anal%29+%282012%29&amp;tr=udp%3A%2F%2Ftracker.openbittorrent.com%3A80&amp;tr=udp%3A%2F%2Fopen.demonii.com%3A1337&amp;tr=udp%3A%2F%2Ftracker.coppersurfer.tk%3A6969&amp;tr=udp%3A%2F%2Fexodus.desync.com%3A6969","seeders":1,"leechers":0,"uploader":"soulless123","files":3,"time":1351816277,"description":"Seeding Time 24/7\n\nDon't Forget To Say Thanks If You Like My Post\n\n\n\n-=Media Info=-\n\n\n(Russian Anal) (2012)Milk Junkies (Russian Anal) (2012).mp4\nFormat : MPEG-4\nFormat profile : Base Media\nCodec ID : isom\nFile size : 390 MiB\nDuration : 1h 8mn\nOverall bit rate mode : Variable\nOverall bit rate : 795 Kbps\nWriting application : Lavf52.78.5\n\nVideo\nID : 1\nFormat : AVC\nFormat/Info : Advanced Video Codec\nFormat profile : &lt;a class=&quot;__cf_email__&quot; href=&quot;/cdn-cgi/l/email-protection&quot; data-cfemail=&quot;4800212f2008047b6678&quot;&gt;[email&amp;#160;protected]&lt;/a&gt;&lt;script cf-hash='f9e31' type=&quot;text/javascript&quot;&gt;\n/* &lt;![CDATA[ */!function(){try{var t=&quot;currentScript&quot;in document?document.currentScript:function(){for(var t=document.getElementsByTagName(&quot;script&quot;),e=t.length;e--;)if(t[e].getAttribute(&quot;cf-hash&quot;))return t[e]}();if(t&amp;&amp;t.previousSibling){var e,r,n,i,c=t.previousSibling,a=c.getAttribute(&quot;data-cfemail&quot;);if(a){for(e=&quot;&quot;,r=parseInt(a.substr(0,2),16),n=2;a.length-n;n+=2)i=parseInt(a.substr(n,2),16)^r,e+=String.fromCharCode(i);e=document.createTextNode(e),c.parentNode.replaceChild(e,c)}}}catch(u){}}();/* ]]&gt; */&lt;/script&gt;\nFormat settings, CABAC : Yes\nFormat settings, ReFrames : 5 frames\nCodec ID : avc1\nCodec ID/Info : Advanced Video Coding\nDuration : 1h 8mn\nBit rate : 700 Kbps\nWidth : 848 pixels\nHeight : 480 pixels\nDisplay aspect ratio : 16:9\nFrame rate mode : Constant\nFrame rate : 25.000 fps\nColor space : YUV\nChroma subsampling : 40\nBit depth : 8 bits\nScan type : Progressive\nBits/(Pixel*Frame) : 0.069\nStream size : 348 MiB (89%)\nWriting library : x264 core 85 Ubuntu_2:0.85.1448+git1a6d32-4\nEncoding settings : cabac=1 / ref=5 / deblock=1:0:0 / analyse=0x3:0x133 / me=hex / subme=7 / psy=1 / psy_rd=1.00:0.00 / mixed_ref=1 / me_range=16 / chroma_me=1 / trellis=1 / 8x8dct=1 / cqm=0 / deadzone=21,11 / fast_pskip=1 / chroma_qp_offset=-2 / threads=2 / sliced_threads=0 / nr=0 / decimate=1 / mbaff=0 / constrained_intra=0 / bframes=3 / b_pyramid=2 / b_adapt=0 / b_bias=0 / direct=2 / wpredb=1 / wpredp=0 / keyint=250 / keyint_min=25 / scenecut=40 / intra_refresh=0 / rc=2pass / mbtree=0 / bitrate=700 / ratetol=5.7 / qcomp=0.50 / qpmin=10 / qpmax=51 / qpstep=4 / cplxblur=20.0 / qblur=0.5 / ip_ratio=1.41 / pb_ratio=1.25 / aq=1:1.00\n\nAudio\nID : 2\nFormat : AAC\nFormat/Info : Advanced Audio Codec\nFormat profile : LC\nCodec ID : 40\nDuration : 1h 8mn\nBit rate mode : Variable\nBit rate : 77.5 Kbps\nChannel(s) : 2 channels\nChannel positions : Front: L R\nSampling rate : 44.1 KHz\nCompression mode : Lossy\nDelay relative to video : 80ms\nStream size : 38.0 MiB (10%)","torrent":{"xt":"urn:btih:f06d3c743e60e4a0fe17159c69b2dbaa961ffe70","amp;dn":"Milk+Junkies+%28Russian+Anal%29+%282012%29","amp;tr":["udp%3A%2F%2Ftracker.openbittorrent.com%3A80","udp%3A%2F%2Fopen.demonii.com%3A1337","udp%3A%2F%2Ftracker.coppersurfer.tk%3A6969","udp%3A%2F%2Fexodus.desync.com%3A6969"],"infoHash":"f06d3c743e60e4a0fe17159c69b2dbaa961ffe70","infoHashBuffer":{"type":"Buffer","data":[240,109,60,116,62,96,228,160,254,23,21,156,105,178,219,170,150,31,254,112]},"announce":[],"urlList":[]}}